PathFileType	4	(X/Y/Z)	SUBJ11_1_walk_RCNL2025.trc
DataRate	CameraRate	NumFrames	NumMarkers	Units	OrigDataRate	OrigDataStartFrame	OrigNumFrames
100	100	10	25	mm	100	333	443
Frame#	Time	R_Shoulder			L_Shoulder			C7			J_Notch			R_Elbow			L_Elbow			R_Wrist			L_Wrist			R_Asis			L_Asis			Sacral			Thoracic			Sternum			R_Thigh_Lateral			R_Knee_Lateral			R_Shank_Lateral			R_Ankle_Lateral			R_Heel			R_Toe			L_Thigh_Lateral			L_Knee_Lateral			L_Shank_Lateral			L_Ankle_Lateral			L_Heel			L_Toe		
		X1	Y1	Z1	X2	Y2	Z2	X3	Y3	Z3	X4	Y4	Z4	X5	Y5	Z5	X6	Y6	Z6	X7	Y7	Z7	X8	Y8	Z8	X9	Y9	Z9	X10	Y10	Z10	X11	Y11	Z11	X12	Y12	Z12	X13	Y13	Z13	X14	Y14	Z14	X15	Y15	Z15	X16	Y16	Z16	X17	Y17	Z17	X18	Y18	Z18	X19	Y19	Z19	X20	Y20	Z20	X21	Y21	Z21	X22	Y22	Z22	X23	Y23	Z23	X24	Y24	Z24	X25	Y25	Z25
333	3.32000000	381.172272	1454.600098	240.768707	378.006317	1454.779419	-154.852798	335.397034	1500.854370	47.922493	481.991730	1396.834717	50.171188	331.019348	1116.879395	335.390900	307.145050	1115.966553	-234.906097	431.925613	875.424408	320.892654	340.360352	852.936127	-228.749725	435.413361	974.082214	196.165131	444.890198	978.691772	-96.261780	264.043549	1000.760925	39.682201	255.465500	1319.331787	43.738052	546.200073	1198.419922	48.785873	361.240662	627.135315	230.918640	374.995636	474.340942	161.275177	354.273285	267.417694	193.203918	329.089233	68.757477	121.988098	270.906891	54.848137	71.816391	466.597748	51.354431	92.452316	453.750336	643.204041	-189.041595	485.924774	498.062378	-109.450241	391.078033	313.946136	-137.521729	299.224823	146.229568	-61.665493	251.901794	162.703476	-4.279320	410.071655	69.004852	-43.102676
334	3.33000000	391.578949	1454.391968	240.622650	387.987854	1453.582275	-155.136566	345.910492	1500.422852	47.695942	492.182007	1396.046997	50.051857	343.582153	1117.022217	337.314728	313.176239	1115.417603	-234.123749	448.446411	877.284515	322.988235	342.953018	852.035645	-228.673622	445.365234	973.805237	197.152206	455.506104	977.816284	-95.446594	274.286224	1000.042786	39.980839	265.562866	1318.836548	43.987438	556.311584	1197.785400	49.235409	367.861908	626.935364	231.407455	378.472137	474.130829	161.376877	356.021606	267.284149	193.306213	329.270813	68.816765	121.926552	271.043152	55.124859	71.763275	466.690643	51.337475	92.423248	468.339355	643.565552	-187.562943	502.690491	498.562042	-107.509277	415.080566	310.566864	-136.059494	331.708496	138.479828	-60.700199	283.466370	152.299271	-3.052028	445.991882	66.465950	-42.496933
335	3.34000000	401.893616	1454.013184	240.416779	398.034302	1452.282227	-155.469131	356.412964	1499.847290	47.378830	502.357330	1395.113403	49.904968	356.173706	1117.015991	339.114655	319.478668	1114.785278	-233.391449	464.815094	878.981750	325.034943	345.827499	851.106110	-228.523460	455.348267	973.414246	198.050919	466.100739	976.774231	-94.703415	284.489349	999.176208	40.285347	275.644836	1318.196655	44.101643	566.419434	1197.025146	49.623425	374.308258	626.693542	231.866776	381.880463	473.915649	161.504059	357.697845	267.161438	193.427155	329.430878	68.883492	121.872177	271.168060	55.405800	71.688194	466.771332	51.312897	92.400528	482.360596	643.571777	-185.973953	518.813232	498.752228	-105.519524	439.056335	306.965637	-134.597153	364.725739	130.696808	-59.744122	315.822021	141.763412	-1.832586	482.313660	64.294067	-41.917240
336	3.35000000	412.119049	1453.488525	240.149307	408.138580	1450.880249	-155.843613	366.903229	1499.126587	46.965591	512.524597	1394.038818	49.726753	368.800354	1116.885620	340.781555	326.079987	1114.063843	-232.714279	481.013351	880.521240	327.022766	349.004883	850.134460	-228.297226	465.364532	972.898621	198.861023	476.682831	975.567993	-94.035042	294.703583	998.163513	40.601036	285.720276	1317.413574	44.085583	576.523010	1196.138184	49.947208	380.596100	626.409424	232.289322	385.261597	473.694275	161.651764	359.319641	267.047211	193.564499	329.575043	68.960068	121.822456	271.283112	55.698341	71.591812	466.841125	51.286888	92.388847	495.806488	643.202026	-184.283386	534.306213	498.585205	-103.509804	463.088013	303.141602	-133.140015	398.238770	122.996956	-58.795166	348.902496	131.235565	-0.658031	518.939575	62.589752	-41.275150
337	3.36000000	422.268890	1452.840576	239.820023	418.291534	1449.374512	-156.254547	377.387146	1498.262939	46.458496	522.693848	1392.826294	49.514698	381.451416	1116.651123	342.306427	332.990814	1113.243286	-232.095337	497.023758	881.911102	328.942444	352.509720	849.105133	-227.996880	475.414185	972.252380	199.585938	487.271545	974.200562	-93.441742	304.967987	997.006958	40.916634	295.802185	1316.488647	43.949299	586.623169	1195.120605	50.209610	386.781799	626.078125	232.675690	388.671631	473.460480	161.818115	360.915100	266.934998	193.713470	329.709808	69.048378	121.774529	271.392487	56.012566	71.479614	466.899170	51.263271	92.390564	508.676025	642.440491	-182.509583	549.192078	498.024658	-101.506409	487.226440	299.133972	-131.697784	432.209259	115.518845	-57.867550	382.600830	120.872093	0.411565	555.774109	61.459873	-40.484596
338	3.37000000	432.369904	1452.086304	239.429901	428.486633	1447.759888	-156.698273	387.876587	1497.259521	45.866821	532.879395	1391.476807	49.267334	394.102478	1116.323242	343.680328	340.205048	1112.311890	-231.535400	512.829239	883.159119	330.785370	356.369797	848.001770	-227.627289	485.494690	971.474182	200.231857	497.894501	972.674377	-92.922218	315.303192	995.708679	41.209106	305.906769	1315.424561	43.707638	596.722473	1193.965942	50.417709	392.949066	625.688965	233.033768	392.178955	473.201782	162.002121	362.525330	266.814758	193.866470	329.842834	69.149002	121.724266	271.501038	56.360752	71.360710	466.944244	51.242161	92.402374	520.978394	641.277588	-180.682053	563.499329	497.049744	-99.528534	511.485809	295.020050	-130.285172	466.593109	108.419289	-56.986622	416.800385	110.839928	1.307069	592.726074	61.025105	-39.474564
339	3.38000000	442.459869	1451.235474	238.980606	438.725372	1446.029297	-157.173447	398.387573	1496.117920	45.205761	543.099854	1389.989990	48.983170	406.720947	1115.904175	344.897034	347.705017	1111.257080	-231.034134	528.412842	884.270142	332.543869	360.614548	846.807770	-227.195389	495.600677	970.567383	200.806885	508.578308	970.990845	-92.473328	325.714783	994.271790	41.450554	316.050598	1314.225220	43.379093	606.824524	1192.665405	50.580608	399.191925	625.226807	233.376389	395.859711	472.899963	162.201187	364.205933	266.672485	194.014160	329.983246	69.261444	121.665550	271.612305	56.757038	71.245781	466.975464	51.220547	92.415932	532.724487	639.707458	-178.835327	577.258606	495.658722	-97.584885	535.843750	290.911407	-128.920776	501.331940	101.866928	-56.181408	451.391846	101.309174	1.969874	629.701172	61.417248	-38.202991
340	3.39000000	452.582428	1450.291138	238.473969	449.017822	1444.175659	-157.681000	408.937988	1494.838135	44.494175	553.376038	1388.365234	48.659340	419.271759	1115.391724	345.956726	355.470428	1110.065186	-230.592361	543.757812	885.244843	334.211914	365.273849	845.506226	-226.711990	505.726166	969.539734	201.321579	519.340942	969.150330	-92.090004	336.196045	992.701538	41.611244	326.249115	1312.895020	42.982414	616.935059	1191.209595	50.706985	405.598846	624.674438	233.716003	399.791199	472.533234	162.410324	366.021942	266.490875	194.147064	330.141418	69.385223	121.589973	271.728607	57.215103	71.142448	466.993835	51.194321	92.422264	543.908203	637.720154	-176.997040	590.502319	493.873749	-95.671822	560.242004	286.945679	-127.622093	536.342285	96.034966	-55.478798	486.266479	92.450500	2.360638	666.586060	62.761646	-36.665668
341	3.40000000	462.782135	1449.251099	237.911209	459.378662	1442.192993	-158.223450	419.546600	1493.419922	43.750858	563.727783	1386.601929	48.291523	431.721588	1114.780884	346.866302	363.485657	1108.721802	-230.214081	558.848511	886.079529	335.785782	370.375214	844.080566	-226.193703	515.867798	968.401794	201.789627	530.190735	967.152283	-91.765518	346.731750	991.005554	41.661976	336.516571	1311.438354	42.533318	627.063660	1189.589600	50.803070	412.240234	624.015137	234.060654	404.043915	472.078766	162.622635	368.036438	266.252808	194.255798	330.328461	69.521042	121.488113	271.853394	57.743034	71.048660	467.006073	51.162003	92.419243	554.492920	635.295532	-175.178055	603.267700	491.743500	-93.773926	584.586365	283.271759	-126.399483	571.500427	91.090042	-54.899643	521.297852	84.429802	2.463447	703.231689	65.151642	-34.898567
342	3.41000000	473.100342	1448.109253	237.293381	469.822754	1440.078369	-158.805191	430.230621	1491.864746	42.991501	574.171692	1384.702637	47.875210	444.041351	1114.065186	347.636658	371.744476	1107.214478	-229.906479	573.670471	886.767303	337.263855	375.940063	842.516510	-225.661812	526.024170	967.165649	202.225937	541.130615	964.998108	-91.491287	357.308502	989.191162	41.579769	346.866028	1309.859619	42.043068	637.223511	1187.799927	50.872643	419.161346	623.234863	234.412552	408.672699	471.515503	162.831375	370.298523	265.945618	194.331039	330.554352	69.672005	121.351974	271.993561	58.341900	70.951126	467.025574	51.126755	92.414352	564.415710	632.404724	-173.370392	615.601990	489.341675	-91.867592	608.749939	280.029816	-125.252388	606.626648	87.175163	-54.454735	556.324036	77.398277	2.293358	739.444763	68.626076	-32.974213
